<svg xmlns="http://www.w3.org/2000/svg" xmlns:xlink="http://www.w3.org/1999/xlink" width="388" height="94" viewBox="0 0 388 94"><defs><filter id="a" x="0" y="0" width="388" height="94" filterUnits="userSpaceOnUse"><feOffset dy="3" input="SourceAlpha"/><feGaussianBlur stdDeviation="3" result="b"/><feFlood flood-opacity="0.161"/><feComposite operator="in" in2="b"/><feComposite in="SourceGraphic"/></filter><linearGradient id="c" x1="0.611" y1="0.882" x2="0.291" y2="0.158" gradientUnits="objectBoundingBox"><stop offset="0" stop-color="#4e5aa0"/><stop offset="1" stop-color="#4c5da9"/></linearGradient><linearGradient id="d" x1="0.5" x2="0.5" y2="1" gradientUnits="objectBoundingBox"><stop offset="0" stop-color="#6b91c8"/><stop offset="1" stop-color="#618ac3"/></linearGradient><linearGradient id="e" x1="0.5" y1="1" x2="0.5" gradientUnits="objectBoundingBox"><stop offset="0" stop-color="#6fc69d"/><stop offset="1" stop-color="#66c296"/></linearGradient></defs><g transform="translate(12880 11748)"><g transform="matrix(1, 0, 0, 1, -12880, -11748)" filter="url(#a)"><g transform="translate(9 6)" fill="#fafafa" stroke="#c1c1c1" stroke-width="3"><rect width="370" height="76" rx="5" stroke="none"/><rect x="1.5" y="1.5" width="367" height="73" rx="3.5" fill="none"/></g></g><text transform="translate(-12772 -11690)" fill="#606060" font-size="30" font-family="Helvetica" letter-spacing="0.01em"><tspan x="0" y="0">Kabeers Network</tspan></text><text transform="translate(-12771 -11719)" fill="#9b9b9b" font-size="10" font-family="Helvetica" letter-spacing="0.01em"><tspan x="0" y="0">Continue with </tspan></text><rect width="70" height="70" rx="2.5" transform="translate(-12868 -11739)" fill="#e8e8e8"/><g transform="translate(-12871 -11742)"><path d="M37.583,54.167V21a16.583,16.583,0,0,0,0,33.167Z" fill="#d3e1f2" fill-rule="evenodd"/><path d="M256,54.167V21a16.583,16.583,0,1,1,0,33.167Z" transform="translate(-218.417)" fill="#5364ae" fill-rule="evenodd"/><path d="M16.429,0,13.236,31.562.015,17.285Q0,16.934,0,16.583A16.584,16.584,0,0,1,16.429,0Z" transform="translate(54.167 54.166) rotate(180)" fill-rule="evenodd" fill="url(#c)"/><path d="M140.75,54.167V21c-4.833,0-8.75,7.425-8.75,16.583S135.918,54.167,140.75,54.167Z" transform="translate(-103.167)" fill-rule="evenodd" fill="url(#d)"/><path d="M8.75,0V33.167C3.918,33.167,0,25.742,0,16.583S3.918,0,8.75,0Z" transform="translate(46.334 54.167) rotate(180)" fill-rule="evenodd" fill="url(#e)"/></g></g></svg>